<svg xmlns="http://www.w3.org/2000/svg" viewBox="0 0 640 720" width="640" height="720">
	<style>
		tspan { white-space:pre }
		.shp0 { fill: #f79595 } 
		.shp1 { fill: #ee6161 } 
		.shp2 { fill: #f9b1b1 } 
		.shp3 { fill: #f37c7c } 
	</style>
	<g id="Layer">
		<g id="Layer">
			<g id="XMLID_427_">
				<g id="Layer">
					<path id="Layer" class="shp0" d="M612.08 155.93C616.71 156.84 619.72 161.32 618.81 165.94L615.44 183.11C614.51 187.86 609.79 190.91 605.03 189.75C600.57 188.65 597.87 184.1 598.75 179.6L598.85 179.13L576.62 180.15C575.95 180.18 575.37 180.62 575.16 181.26C572.99 187.82 570.13 194.07 566.67 199.92C566.32 200.51 566.37 201.26 566.82 201.79L576.65 213.47C578.6 211.61 581.15 210.64 583.73 210.64C585.9 210.64 588.09 211.33 589.95 212.76C594.45 216.2 595.31 222.64 591.87 227.15L589.01 230.87C585.67 235.25 579.43 236.42 574.89 233.29C570.98 230.6 569.57 225.76 570.98 221.55L556.82 215.33C556.18 215.05 555.44 215.21 554.97 215.73C548.41 222.93 540.78 229.12 532.33 234.07C531.74 234.41 531.43 235.07 531.54 235.73L535.17 257.84L538.3 256.59C542.8 254.79 547.93 257.09 549.53 261.72C551.04 266.06 548.68 270.8 544.42 272.5L528.39 278.92C523.89 280.72 518.77 278.42 517.16 273.78C515.66 269.44 518.02 264.7 522.28 263L522.71 262.83L509.78 244.71C509.39 244.16 508.71 243.92 508.05 244.09C500.33 246.09 492.22 247.16 483.87 247.16C477.25 247.16 470.8 246.49 464.57 245.22C463.91 245.09 463.24 245.37 462.87 245.93L449.94 266.23L450.39 266.39C454.61 267.93 457.22 271.9 457.22 276.14C457.22 277.32 457.01 278.52 456.59 279.69C456.59 285.76 451.92 289.03 446.22 286.95L430.32 281.15C425 279.22 422.22 273.38 424.06 268.04C425.95 262.54 432.22 259.77 437.68 261.76L438.04 261.89L440.68 238.11C440.75 237.44 440.4 236.8 439.81 236.49C429.74 231.29 420.71 224.36 413.1 216.1C412.64 215.6 411.92 215.44 411.3 215.69L391.89 223.65C394.09 227.75 392.85 232.95 388.85 235.58C384.67 238.33 379.03 237.05 376.18 232.95L371.21 225.8C368.43 221.8 369.08 216.23 372.9 213.21C376.98 210 382.8 210.83 385.86 214.87L399.52 199.43C399.98 198.91 400.05 198.17 399.72 197.57C394.11 187.46 390.27 176.23 388.62 164.3C388.53 163.63 388.04 163.09 387.39 162.94L365.55 157.9L365.53 160.46C365.51 163.02 364.45 165.34 362.76 167.01C361.07 168.69 358.75 169.72 356.18 169.72C351.08 169.72 346.95 165.56 347 160.46L347.14 144.59C347.19 139.41 351.47 135.04 356.66 135.17C361.69 135.3 365.7 139.44 365.67 144.48L387.35 139.4C388.01 139.25 388.49 138.7 388.58 138.04C390.28 125.42 394.43 113.58 400.54 103.01C400.88 102.42 400.82 101.68 400.37 101.15L390.04 89.01L389.14 90.2C386.35 93.88 381.03 94.52 377.44 91.53C374.07 88.73 373.66 83.69 376.3 80.2L383.19 71.1C384.79 68.99 387.22 67.87 389.68 67.87C391.39 67.87 393.11 68.41 394.58 69.52C397.99 72.09 398.79 76.82 396.54 80.36L410.99 86.61C411.63 86.88 412.36 86.72 412.84 86.21C419.66 78.73 427.65 72.34 436.52 67.31C437.1 66.97 437.43 66.32 437.33 65.66L434 43.5L430.84 44.71C426.32 46.45 421.23 44.08 419.69 39.43C418.24 35.07 420.66 30.36 424.94 28.71L441.06 22.52C445.58 20.78 450.67 23.15 452.21 27.8C453.66 32.16 451.24 36.87 446.95 38.52L446.52 38.68L459.2 56.96C459.58 57.52 460.26 57.77 460.91 57.61C468.27 55.81 475.95 54.85 483.87 54.85L483.88 54.85C484.57 54.85 485.19 54.43 485.42 53.78L489.62 42.03C484.75 40.51 481.51 35.71 482.13 30.48C482.84 24.55 488.52 20.34 494.44 21.09L500.21 21.81C506.09 22.55 510.5 27.81 509.86 33.71C509.35 38.3 506.05 41.87 501.86 42.97L503.32 55.7C503.4 56.39 503.91 56.95 504.59 57.1C514.34 59.24 523.53 62.87 531.92 67.72C532.51 68.05 533.24 68 533.76 67.58L551.16 53.46L548.51 51.36C544.71 48.34 544.18 42.75 547.4 39.06C550.42 35.6 555.71 35.29 559.3 38.15L572.82 48.88C576.62 51.89 577.15 57.49 573.93 61.18C570.91 64.63 565.62 64.94 562.03 62.09L561.66 61.8L552.35 82.03C552.06 82.63 552.19 83.35 552.66 83.83C559.22 90.55 564.8 98.23 569.18 106.63C569.5 107.24 570.16 107.58 570.84 107.49L584.05 105.64C582.11 100.23 584.99 94.22 590.53 92.41C595.81 90.67 601.5 93.61 603.44 98.82L606.49 106.98C608.41 112.14 606.1 118.04 601.06 120.24C596.22 122.34 590.76 120.44 588.16 116.15L577.2 123.59C576.63 123.98 576.37 124.69 576.56 125.36C578.81 133.53 580.02 142.13 580.02 151.01C580.02 152.5 579.98 153.97 579.91 155.43C579.88 156.11 580.26 156.73 580.88 157L601.43 165.97L602.08 162.66C602.99 158.03 607.47 155.02 612.08 155.93L612.08 155.93Z" />
				</g>
			</g>
			<path id="Layer" class="shp1" d="M525.62 115.02C518.11 115.02 512.04 109.95 512.04 103.67C512.04 97.39 518.11 92.32 525.62 92.32C533.13 92.32 539.19 97.39 539.19 103.67C539.19 109.95 533.13 115.02 525.62 115.02Z" />
			<path id="Layer" class="shp1" d="M476.63 189.19C468.42 189.19 461.79 182.56 461.79 174.35C461.79 166.15 468.42 159.52 476.63 159.52C484.83 159.52 491.47 166.15 491.47 174.35C491.47 182.56 484.83 189.19 476.63 189.19Z" />
			<path id="Layer" class="shp2" d="M534.46 177.25C528.58 177.25 523.83 172.5 523.83 166.62C523.83 160.75 528.58 156 534.46 156C540.33 156 545.08 160.75 545.08 166.62C545.08 172.5 540.33 177.25 534.46 177.25Z" />
			<path id="Layer" class="shp2" d="M495.22 228.8C489.51 228.8 484.89 224.18 484.89 218.47C484.89 212.76 489.51 208.14 495.22 208.14C500.93 208.14 505.55 212.76 505.55 218.47C505.55 224.18 500.93 228.8 495.22 228.8Z" />
			<g id="Layer">
				<path id="Layer" class="shp3" d="M425.39 146.4C425.39 109.44 443.02 76.59 470.33 55.8C467.14 56.25 463.99 56.86 460.91 57.61C460.26 57.77 459.58 57.52 459.2 56.96L446.52 38.68L446.95 38.52C451.24 36.87 453.66 32.16 452.21 27.8C450.67 23.15 445.58 20.78 441.06 22.52L424.94 28.71C420.66 30.36 418.24 35.07 419.69 39.43C421.23 44.08 426.32 46.45 430.84 44.71L434 43.5L437.33 65.66C437.43 66.32 437.1 66.97 436.52 67.31C427.65 72.34 419.66 78.73 412.84 86.21C412.36 86.72 411.63 86.88 410.99 86.61L396.54 80.36C398.79 76.82 397.99 72.09 394.58 69.52C393.11 68.41 391.39 67.87 389.68 67.87C387.22 67.87 384.79 68.99 383.19 71.1L376.3 80.2C373.66 83.69 374.07 88.73 377.44 91.53C381.03 94.52 386.35 93.88 389.14 90.2L390.04 89.01L400.37 101.15C400.82 101.68 400.88 102.42 400.54 103.01C394.43 113.58 390.28 125.42 388.58 138.04C388.49 138.7 388.01 139.25 387.35 139.4L365.67 144.48C365.7 139.44 361.69 135.3 356.66 135.17C351.47 135.04 347.19 139.41 347.14 144.59L347 160.46C346.95 165.56 351.08 169.72 356.18 169.72C358.75 169.72 361.07 168.69 362.76 167.01C364.45 165.34 365.51 163.02 365.53 160.46L365.55 157.9L387.39 162.94C388.04 163.09 388.53 163.63 388.62 164.3C390.27 176.23 394.11 187.46 399.72 197.57C400.05 198.17 399.98 198.91 399.52 199.43L385.86 214.87C382.8 210.83 376.98 210 372.9 213.21C369.08 216.23 368.43 221.8 371.21 225.8L376.18 232.95C379.03 237.05 384.67 238.33 388.85 235.58C392.85 232.95 394.09 227.75 391.89 223.65L411.3 215.69C411.92 215.44 412.64 215.6 413.1 216.1C420.71 224.36 429.74 231.29 439.81 236.49C440.4 236.8 440.75 237.44 440.68 238.11L438.04 261.89L437.68 261.76C432.22 259.77 425.95 262.54 424.06 268.04C422.22 273.38 425 279.22 430.32 281.15L446.22 286.95C451.92 289.03 456.59 285.76 456.59 279.69C457.01 278.52 457.22 277.32 457.22 276.14C457.22 271.9 454.61 267.93 450.39 266.39L449.94 266.23L462.87 245.93C463.24 245.37 463.91 245.09 464.57 245.22C470.8 246.49 477.25 247.16 483.87 247.16C484.64 247.16 485.44 247.16 486.21 247.14C450.06 228.07 425.39 190.12 425.39 146.4L425.39 146.4Z" />
			</g>
			<path id="Layer" class="shp1" d="M430.59 204.52C424.64 204.52 419.83 199.71 419.83 193.76C419.83 187.81 424.64 183 430.59 183C436.54 183 441.35 187.81 441.35 193.76C441.35 199.71 436.54 204.52 430.59 204.52Z" />
			<g id="Layer">
				<path id="Layer" class="shp2" d="M510.23 146.4L506.59 146.4C504.32 146.4 502.48 144.56 502.48 142.29C502.48 140.02 504.32 138.18 506.59 138.18L510.23 138.18C512.5 138.18 514.34 140.02 514.34 142.29C514.34 144.56 512.5 146.4 510.23 146.4Z" />
			</g>
			<g id="Layer">
				<path id="Layer" class="shp2" d="M461.79 218.29L458.06 218.29C455.78 218.29 453.94 216.45 453.94 214.18C453.94 211.91 455.78 210.07 458.06 210.07L461.79 210.07C464.06 210.07 465.9 211.91 465.9 214.18C465.9 216.45 464.06 218.29 461.79 218.29Z" />
			</g>
			<g id="Layer">
				<path id="Layer" class="shp1" d="M423.43 158.4L419.83 158.4C417.56 158.4 415.72 156.56 415.72 154.29C415.72 152.02 417.56 150.18 419.83 150.18L423.43 150.18C425.7 150.18 427.54 152.02 427.54 154.29C427.54 156.56 425.7 158.4 423.43 158.4Z" />
			</g>
			<g id="Layer">
				<path id="Layer" class="shp2" d="M496.47 86.45L491.47 86.45C489.2 86.45 487.35 84.61 487.35 82.33C487.35 80.06 489.2 78.22 491.47 78.22L496.47 78.22C498.75 78.22 500.59 80.06 500.59 82.33C500.59 84.61 498.75 86.45 496.47 86.45Z" />
			</g>
			<g id="Layer">
				<path id="Layer" class="shp1" d="M529.36 204.91L523.83 204.91C521.56 204.91 519.72 203.06 519.72 200.79C519.72 198.52 521.56 196.68 523.83 196.68L529.36 196.68C531.64 196.68 533.48 198.52 533.48 200.79C533.48 203.06 531.64 204.91 529.36 204.91Z" />
			</g>
		</g>
		<path id="Layer" class="shp1" d="M466.63 133.56C454.34 143.26 437.85 142.8 429.76 132.53C421.66 122.26 425.05 106.12 437.35 96.42C449.64 86.73 466.13 87.19 474.23 97.46C482.32 107.73 478.93 123.87 466.63 133.56Z" />
	</g>
	<g id="Layer copy 22">
		<g id="Layer copy 20">
			<g id="XMLID_427_ copy">
				<g id="Layer copy 2">
					<path id="Layer copy" class="shp0" d="M401.67 637.23C404.58 637.8 406.47 640.62 405.9 643.52L403.78 654.32C403.19 657.31 400.23 659.22 397.23 658.49C394.43 657.8 392.73 654.94 393.29 652.11L393.35 651.82L379.37 652.46C378.95 652.47 378.58 652.75 378.45 653.16C377.09 657.28 375.29 661.21 373.11 664.89C372.89 665.26 372.93 665.73 373.21 666.06L379.39 673.4C380.62 672.24 382.22 671.63 383.84 671.63C385.21 671.63 386.58 672.06 387.75 672.96C390.58 675.12 391.12 679.17 388.96 682.01L387.16 684.35C385.06 687.1 381.14 687.84 378.29 685.87C375.83 684.18 374.94 681.13 375.83 678.49L366.92 674.57C366.52 674.4 366.05 674.5 365.76 674.83C361.64 679.35 356.84 683.25 351.52 686.36C351.16 686.57 350.96 686.99 351.03 687.4L353.31 701.3L355.28 700.51C358.11 699.38 361.33 700.83 362.34 703.75C363.28 706.47 361.8 709.45 359.12 710.52L349.05 714.56C346.22 715.69 343 714.24 341.99 711.33C341.04 708.6 342.53 705.62 345.2 704.55L345.48 704.44L337.35 693.05C337.1 692.7 336.67 692.55 336.26 692.66C331.4 693.92 326.31 694.59 321.05 694.59C316.89 694.59 312.84 694.17 308.92 693.37C308.51 693.28 308.08 693.46 307.85 693.82L299.72 706.58L300.01 706.68C302.66 707.64 304.3 710.14 304.3 712.81C304.3 713.55 304.17 714.31 303.9 715.04C303.9 718.86 300.97 720.92 297.38 719.6L287.39 715.96C284.04 714.74 282.3 711.07 283.45 707.72C284.64 704.26 288.58 702.51 292.01 703.77L292.24 703.85L293.9 688.9C293.95 688.47 293.73 688.07 293.35 687.88C287.02 684.61 281.34 680.26 276.56 675.06C276.27 674.75 275.82 674.64 275.43 674.8L263.23 679.81C264.61 682.39 263.83 685.65 261.31 687.31C258.69 689.04 255.14 688.23 253.35 685.65L250.22 681.16C248.47 678.64 248.88 675.14 251.29 673.24C253.85 671.22 257.51 671.75 259.43 674.29L268.02 664.58C268.31 664.25 268.36 663.79 268.15 663.41C264.62 657.05 262.21 649.99 261.17 642.49C261.11 642.07 260.8 641.73 260.39 641.64L246.66 638.46L246.65 640.08C246.64 641.69 245.97 643.14 244.91 644.2C243.85 645.25 242.39 645.9 240.77 645.9C237.57 645.9 234.97 643.28 235 640.08L235.09 630.1C235.12 626.84 237.81 624.09 241.07 624.18C244.23 624.26 246.76 626.86 246.74 630.03L260.37 626.84C260.78 626.74 261.09 626.4 261.14 625.98C262.21 618.05 264.82 610.6 268.66 603.96C268.87 603.58 268.84 603.12 268.56 602.79L262.06 595.15L261.49 595.9C259.74 598.22 256.4 598.62 254.14 596.74C252.02 594.97 251.76 591.81 253.42 589.61L257.76 583.89C258.76 582.56 260.29 581.86 261.84 581.86C262.91 581.86 263.99 582.2 264.92 582.9C267.06 584.51 267.56 587.49 266.15 589.71L275.24 593.64C275.64 593.82 276.1 593.71 276.39 593.39C280.68 588.69 285.71 584.67 291.28 581.51C291.65 581.3 291.85 580.89 291.79 580.47L289.7 566.54L287.71 567.3C284.87 568.4 281.67 566.9 280.7 563.98C279.79 561.24 281.31 558.28 284.01 557.24L294.14 553.35C296.98 552.25 300.18 553.74 301.15 556.67C302.06 559.41 300.54 562.37 297.84 563.41L297.57 563.51L305.54 575.01C305.78 575.35 306.21 575.51 306.62 575.41C311.25 574.28 316.08 573.68 321.05 573.68L321.06 573.68C321.49 573.68 321.88 573.41 322.03 573L324.67 565.62C321.61 564.66 319.57 561.64 319.96 558.35C320.41 554.63 323.98 551.98 327.7 552.45L331.33 552.9C335.03 553.37 337.8 556.68 337.4 560.38C337.08 563.27 335 565.52 332.37 566.21L333.29 574.21C333.33 574.64 333.65 574.99 334.08 575.09C340.21 576.44 345.99 578.72 351.27 581.77C351.64 581.98 352.09 581.95 352.42 581.68L363.36 572.8L361.7 571.48C359.31 569.58 358.97 566.07 361 563.75C362.9 561.57 366.22 561.38 368.48 563.18L376.98 569.92C379.37 571.82 379.71 575.33 377.68 577.65C375.78 579.83 372.46 580.02 370.2 578.23L369.97 578.04L364.11 590.76C363.93 591.14 364.01 591.6 364.31 591.9C368.43 596.12 371.94 600.95 374.69 606.23C374.89 606.61 375.31 606.83 375.74 606.77L384.04 605.61C382.82 602.2 384.63 598.43 388.12 597.29C391.44 596.2 395.01 598.04 396.24 601.32L398.15 606.45C399.36 609.69 397.91 613.41 394.74 614.79C391.69 616.11 388.26 614.91 386.63 612.22L379.74 616.89C379.38 617.14 379.21 617.59 379.33 618.01C380.75 623.14 381.51 628.55 381.51 634.13C381.51 635.07 381.49 636 381.44 636.92C381.42 637.34 381.66 637.73 382.05 637.9L394.97 643.54L395.38 641.46C395.95 638.55 398.77 636.66 401.67 637.23L401.67 637.23Z" />
				</g>
			</g>
			<path id="Layer copy 3" class="shp1" d="M347.3 611.51C342.58 611.51 338.77 608.32 338.77 604.37C338.77 600.42 342.58 597.23 347.3 597.23C352.02 597.23 355.84 600.42 355.84 604.37C355.84 608.32 352.02 611.51 347.3 611.51Z" />
			<path id="Layer copy 4" class="shp1" d="M316.5 658.14C311.34 658.14 307.17 653.97 307.17 648.81C307.17 643.65 311.34 639.48 316.5 639.48C321.66 639.48 325.83 643.65 325.83 648.81C325.83 653.97 321.66 658.14 316.5 658.14Z" />
			<path id="Layer copy 5" class="shp2" d="M352.86 650.63C349.17 650.63 346.18 647.65 346.18 643.95C346.18 640.26 349.17 637.27 352.86 637.27C356.56 637.27 359.54 640.26 359.54 643.95C359.54 647.65 356.56 650.63 352.86 650.63Z" />
			<path id="Layer copy 6" class="shp2" d="M328.19 683.04C324.6 683.04 321.7 680.14 321.7 676.55C321.7 672.96 324.6 670.06 328.19 670.06C331.78 670.06 334.69 672.96 334.69 676.55C334.69 680.14 331.78 683.04 328.19 683.04Z" />
			<g id="Layer copy 8">
				<path id="Layer copy 7" class="shp3" d="M284.29 631.24C284.29 608 295.37 587.34 312.54 574.27C310.54 574.55 308.56 574.94 306.62 575.41C306.21 575.51 305.78 575.35 305.54 575.01L297.57 563.51L297.84 563.41C300.54 562.37 302.06 559.41 301.15 556.67C300.18 553.74 296.98 552.25 294.14 553.35L284.01 557.24C281.31 558.28 279.79 561.24 280.7 563.98C281.67 566.9 284.87 568.4 287.71 567.3L289.7 566.54L291.79 580.47C291.85 580.89 291.65 581.3 291.28 581.51C285.71 584.67 280.68 588.69 276.39 593.39C276.1 593.71 275.64 593.82 275.24 593.64L266.15 589.71C267.56 587.49 267.06 584.51 264.92 582.9C263.99 582.2 262.91 581.86 261.84 581.86C260.29 581.86 258.76 582.56 257.76 583.89L253.42 589.61C251.76 591.81 252.02 594.97 254.14 596.74C256.4 598.62 259.74 598.22 261.49 595.9L262.06 595.15L268.56 602.79C268.84 603.12 268.87 603.58 268.66 603.96C264.82 610.6 262.21 618.05 261.14 625.98C261.09 626.4 260.78 626.74 260.37 626.84L246.74 630.03C246.76 626.86 244.23 624.26 241.07 624.18C237.81 624.09 235.12 626.84 235.09 630.1L235 640.08C234.97 643.28 237.57 645.9 240.77 645.9C242.39 645.9 243.85 645.25 244.91 644.2C245.97 643.14 246.64 641.69 246.65 640.08L246.66 638.46L260.39 641.64C260.8 641.73 261.11 642.07 261.17 642.49C262.21 649.99 264.62 657.05 268.15 663.41C268.36 663.79 268.31 664.25 268.02 664.58L259.43 674.29C257.51 671.75 253.85 671.22 251.29 673.24C248.88 675.14 248.47 678.64 250.22 681.16L253.35 685.65C255.14 688.23 258.69 689.04 261.31 687.31C263.83 685.65 264.61 682.39 263.23 679.81L275.43 674.8C275.82 674.64 276.27 674.75 276.56 675.06C281.34 680.26 287.02 684.61 293.35 687.88C293.73 688.07 293.95 688.47 293.9 688.9L292.24 703.85L292.01 703.77C288.58 702.51 284.64 704.26 283.45 707.72C282.3 711.07 284.04 714.74 287.39 715.96L297.38 719.6C300.97 720.92 303.9 718.86 303.9 715.04C304.17 714.31 304.3 713.55 304.3 712.81C304.3 710.14 302.66 707.64 300.01 706.68L299.72 706.58L307.85 693.82C308.08 693.46 308.51 693.28 308.92 693.37C312.84 694.17 316.89 694.59 321.05 694.59C321.54 694.59 322.04 694.59 322.53 694.57C299.8 682.59 284.29 658.72 284.29 631.24L284.29 631.24Z" />
			</g>
			<path id="Layer copy 9" class="shp1" d="M287.56 667.78C283.82 667.78 280.79 664.76 280.79 661.02C280.79 657.27 283.82 654.25 287.56 654.25C291.3 654.25 294.32 657.27 294.32 661.02C294.32 664.76 291.3 667.78 287.56 667.78Z" />
			<g id="Layer copy 11">
				<path id="Layer copy 10" class="shp2" d="M337.63 631.24L335.34 631.24C333.91 631.24 332.75 630.08 332.75 628.65C332.75 627.23 333.91 626.07 335.34 626.07L337.63 626.07C339.05 626.07 340.21 627.23 340.21 628.65C340.21 630.08 339.05 631.24 337.63 631.24Z" />
			</g>
			<g id="Layer copy 13">
				<path id="Layer copy 12" class="shp2" d="M307.17 676.44L304.82 676.44C303.4 676.44 302.24 675.28 302.24 673.85C302.24 672.43 303.4 671.27 304.82 671.27L307.17 671.27C308.6 671.27 309.76 672.43 309.76 673.85C309.76 675.28 308.6 676.44 307.17 676.44Z" />
			</g>
			<g id="Layer copy 15">
				<path id="Layer copy 14" class="shp1" d="M283.05 638.78L280.79 638.78C279.36 638.78 278.21 637.62 278.21 636.2C278.21 634.77 279.36 633.61 280.79 633.61L283.05 633.61C284.48 633.61 285.64 634.77 285.64 636.2C285.64 637.62 284.48 638.78 283.05 638.78Z" />
			</g>
			<g id="Layer copy 17">
				<path id="Layer copy 16" class="shp2" d="M328.98 593.54L325.83 593.54C324.4 593.54 323.25 592.38 323.25 590.96C323.25 589.53 324.4 588.37 325.83 588.37L328.98 588.37C330.41 588.37 331.57 589.53 331.57 590.96C331.57 592.38 330.41 593.54 328.98 593.54Z" />
			</g>
			<g id="Layer copy 19">
				<path id="Layer copy 18" class="shp1" d="M349.66 668.02L346.18 668.02C344.75 668.02 343.6 666.86 343.6 665.44C343.6 664.01 344.75 662.85 346.18 662.85L349.66 662.85C351.09 662.85 352.24 664.01 352.24 665.44C352.24 666.86 351.09 668.02 349.66 668.02Z" />
			</g>
		</g>
		<path id="Layer copy 21" class="shp1" d="M310.22 623.17C302.49 629.26 292.12 628.97 287.03 622.51C281.94 616.06 284.07 605.91 291.81 599.81C299.54 593.72 309.9 594.01 314.99 600.47C320.08 606.92 317.95 617.07 310.22 623.17Z" />
	</g>
	<g id="Layer copy 44">
		<g id="Layer copy 42">
			<g id="XMLID_427_ copy 2">
				<g id="Layer copy 24">
					<path id="Layer copy 23" class="shp0" d="M122.14 387.06C124.06 387.44 125.31 389.3 124.93 391.22L123.53 398.35C123.14 400.33 121.19 401.6 119.21 401.11C117.36 400.66 116.23 398.76 116.6 396.89L116.64 396.7L107.4 397.12C107.12 397.14 106.88 397.32 106.8 397.59C105.89 400.31 104.71 402.91 103.27 405.34C103.12 405.58 103.15 405.9 103.33 406.11L107.42 410.97C108.23 410.19 109.29 409.79 110.36 409.79C111.26 409.79 112.17 410.08 112.94 410.67C114.81 412.1 115.17 414.78 113.74 416.65L112.55 418.2C111.16 420.02 108.57 420.5 106.69 419.2C105.06 418.08 104.47 416.07 105.06 414.33L99.18 411.74C98.91 411.62 98.6 411.69 98.41 411.91C95.68 414.9 92.51 417.47 89 419.53C88.76 419.67 88.63 419.94 88.67 420.22L90.18 429.4L91.48 428.88C93.35 428.13 95.48 429.09 96.15 431.02C96.77 432.82 95.79 434.79 94.02 435.5L87.36 438.16C85.5 438.91 83.37 437.95 82.7 436.03C82.08 434.22 83.06 432.25 84.83 431.55L85.01 431.47L79.63 423.95C79.47 423.72 79.19 423.62 78.92 423.69C75.71 424.52 72.34 424.97 68.87 424.97C66.12 424.97 63.44 424.69 60.85 424.16C60.57 424.1 60.29 424.22 60.14 424.45L54.77 432.89L54.96 432.96C56.71 433.59 57.79 435.25 57.79 437C57.79 437.5 57.71 438 57.53 438.48C57.53 441 55.59 442.36 53.22 441.5L46.62 439.09C44.41 438.28 43.25 435.86 44.02 433.64C44.8 431.36 47.41 430.2 49.67 431.03L49.83 431.08L50.92 421.2C50.95 420.93 50.81 420.66 50.56 420.53C46.38 418.37 42.62 415.49 39.46 412.06C39.27 411.85 38.97 411.78 38.71 411.89L30.65 415.2C31.56 416.9 31.05 419.06 29.39 420.16C27.65 421.3 25.31 420.77 24.12 419.06L22.06 416.09C20.9 414.43 21.17 412.11 22.76 410.86C24.46 409.52 26.88 409.87 28.14 411.55L33.82 405.13C34.01 404.92 34.04 404.61 33.9 404.36C31.57 400.16 29.98 395.49 29.29 390.54C29.25 390.26 29.05 390.04 28.78 389.97L19.71 387.88L19.7 388.94C19.69 390.01 19.25 390.97 18.55 391.66C17.85 392.36 16.88 392.79 15.81 392.79C13.7 392.79 11.98 391.06 12 388.94L12.06 382.35C12.08 380.2 13.86 378.38 16.01 378.44C18.1 378.49 19.77 380.21 19.76 382.31L28.76 380.19C29.04 380.13 29.24 379.9 29.28 379.63C29.98 374.39 31.71 369.47 34.24 365.07C34.38 364.83 34.36 364.52 34.18 364.3L29.88 359.26L29.51 359.75C28.35 361.28 26.14 361.55 24.65 360.31C23.25 359.14 23.08 357.05 24.18 355.6L27.04 351.81C27.7 350.94 28.71 350.47 29.73 350.47C30.44 350.47 31.16 350.7 31.77 351.16C33.18 352.23 33.52 354.19 32.58 355.66L38.59 358.26C38.85 358.37 39.16 358.31 39.35 358.09C42.19 354.99 45.51 352.33 49.19 350.24C49.44 350.1 49.57 349.83 49.53 349.55L48.15 340.35L46.83 340.85C44.96 341.58 42.84 340.59 42.2 338.66C41.6 336.85 42.61 334.89 44.38 334.2L51.08 331.63C52.96 330.91 55.07 331.89 55.71 333.83C56.31 335.64 55.31 337.59 53.53 338.28L53.35 338.35L58.62 345.94C58.77 346.17 59.06 346.28 59.33 346.21C62.39 345.46 65.58 345.07 68.87 345.07L68.87 345.07C69.16 345.07 69.41 344.89 69.51 344.62L71.26 339.74C69.23 339.11 67.89 337.11 68.15 334.94C68.44 332.48 70.8 330.73 73.26 331.04L75.66 331.34C78.1 331.64 79.93 333.83 79.66 336.28C79.46 338.19 78.08 339.67 76.34 340.13L76.95 345.42C76.98 345.7 77.19 345.94 77.48 346C81.53 346.89 85.35 348.39 88.83 350.41C89.08 350.55 89.38 350.53 89.59 350.35L96.82 344.48L95.72 343.61C94.15 342.36 93.92 340.04 95.26 338.5C96.52 337.07 98.71 336.94 100.21 338.13L105.82 342.58C107.4 343.84 107.62 346.16 106.29 347.69C105.03 349.13 102.83 349.26 101.34 348.07L101.19 347.95L97.32 356.35C97.2 356.61 97.25 356.91 97.45 357.11C100.17 359.9 102.49 363.09 104.31 366.58C104.44 366.83 104.72 366.97 105 366.94L110.49 366.17C109.68 363.92 110.88 361.42 113.18 360.67C115.38 359.95 117.74 361.17 118.55 363.33L119.81 366.72C120.61 368.87 119.65 371.32 117.56 372.23C115.55 373.1 113.28 372.31 112.2 370.53L107.65 373.62C107.41 373.78 107.3 374.08 107.38 374.36C108.31 377.75 108.81 381.33 108.81 385.02C108.81 385.63 108.8 386.25 108.77 386.86C108.76 387.14 108.92 387.39 109.17 387.5L117.71 391.23L117.98 389.86C118.36 387.94 120.22 386.68 122.14 387.06L122.14 387.06Z" />
				</g>
			</g>
			<path id="Layer copy 25" class="shp1" d="M86.21 370.06C83.09 370.06 80.57 367.96 80.57 365.35C80.57 362.74 83.09 360.63 86.21 360.63C89.33 360.63 91.85 362.74 91.85 365.35C91.85 367.96 89.33 370.06 86.21 370.06Z" />
			<path id="Layer copy 26" class="shp1" d="M65.86 400.88C62.45 400.88 59.69 398.12 59.69 394.72C59.69 391.31 62.45 388.55 65.86 388.55C69.27 388.55 72.02 391.31 72.02 394.72C72.02 398.12 69.27 400.88 65.86 400.88Z" />
			<path id="Layer copy 27" class="shp2" d="M89.89 395.92C87.44 395.92 85.47 393.94 85.47 391.5C85.47 389.06 87.44 387.09 89.89 387.09C92.33 387.09 94.3 389.06 94.3 391.5C94.3 393.94 92.33 395.92 89.89 395.92Z" />
			<path id="Layer copy 28" class="shp2" d="M73.58 417.34C71.21 417.34 69.29 415.42 69.29 413.05C69.29 410.67 71.21 408.75 73.58 408.75C75.96 408.75 77.87 410.67 77.87 413.05C77.87 415.42 75.96 417.34 73.58 417.34Z" />
			<g id="Layer copy 30">
				<path id="Layer copy 29" class="shp3" d="M44.57 383.1C44.57 367.75 51.9 354.1 63.24 345.46C61.92 345.65 60.61 345.9 59.33 346.21C59.06 346.28 58.77 346.17 58.62 345.94L53.35 338.35L53.53 338.28C55.31 337.59 56.31 335.64 55.71 333.83C55.07 331.89 52.96 330.91 51.08 331.63L44.38 334.2C42.61 334.89 41.6 336.85 42.2 338.66C42.84 340.59 44.96 341.58 46.83 340.85L48.15 340.35L49.53 349.55C49.57 349.83 49.44 350.1 49.19 350.24C45.51 352.33 42.19 354.99 39.35 358.09C39.16 358.31 38.85 358.37 38.59 358.26L32.58 355.66C33.52 354.19 33.18 352.23 31.77 351.16C31.16 350.7 30.44 350.47 29.73 350.47C28.71 350.47 27.7 350.94 27.04 351.81L24.18 355.6C23.08 357.05 23.25 359.14 24.65 360.31C26.14 361.55 28.35 361.28 29.51 359.75L29.88 359.26L34.18 364.3C34.36 364.52 34.38 364.83 34.24 365.07C31.71 369.47 29.98 374.39 29.28 379.63C29.24 379.9 29.04 380.13 28.76 380.19L19.76 382.31C19.77 380.21 18.1 378.49 16.01 378.44C13.86 378.38 12.08 380.2 12.06 382.35L12 388.94C11.98 391.06 13.7 392.79 15.81 392.79C16.88 392.79 17.85 392.36 18.55 391.66C19.25 390.97 19.69 390.01 19.7 388.94L19.71 387.88L28.78 389.97C29.05 390.04 29.25 390.26 29.29 390.54C29.98 395.49 31.57 400.16 33.9 404.36C34.04 404.61 34.01 404.92 33.82 405.13L28.14 411.55C26.88 409.87 24.46 409.52 22.76 410.86C21.17 412.11 20.9 414.43 22.06 416.09L24.12 419.06C25.31 420.77 27.65 421.3 29.39 420.16C31.05 419.06 31.56 416.9 30.65 415.2L38.71 411.89C38.97 411.78 39.27 411.85 39.46 412.06C42.62 415.49 46.38 418.37 50.56 420.53C50.81 420.66 50.95 420.93 50.92 421.2L49.83 431.08L49.67 431.03C47.41 430.2 44.8 431.36 44.02 433.64C43.25 435.86 44.41 438.28 46.62 439.09L53.22 441.5C55.59 442.36 57.53 441 57.53 438.48C57.71 438 57.79 437.5 57.79 437C57.79 435.25 56.71 433.59 54.96 432.96L54.77 432.89L60.14 424.45C60.29 424.22 60.57 424.1 60.85 424.16C63.44 424.69 66.12 424.97 68.87 424.97C69.19 424.97 69.52 424.96 69.84 424.96C54.82 417.04 44.57 401.26 44.57 383.1L44.57 383.1Z" />
			</g>
			<path id="Layer copy 31" class="shp1" d="M46.73 407.25C44.26 407.25 42.26 405.25 42.26 402.78C42.26 400.31 44.26 398.31 46.73 398.31C49.2 398.31 51.2 400.31 51.2 402.78C51.2 405.25 49.2 407.25 46.73 407.25Z" />
			<g id="Layer copy 33">
				<path id="Layer copy 32" class="shp2" d="M79.82 383.1L78.31 383.1C77.36 383.1 76.6 382.34 76.6 381.39C76.6 380.45 77.36 379.69 78.31 379.69L79.82 379.69C80.76 379.69 81.53 380.45 81.53 381.39C81.53 382.34 80.76 383.1 79.82 383.1Z" />
			</g>
			<g id="Layer copy 35">
				<path id="Layer copy 34" class="shp2" d="M59.69 412.97L58.14 412.97C57.2 412.97 56.43 412.21 56.43 411.26C56.43 410.32 57.2 409.55 58.14 409.55L59.69 409.55C60.64 409.55 61.4 410.32 61.4 411.26C61.4 412.21 60.64 412.97 59.69 412.97Z" />
			</g>
			<g id="Layer copy 37">
				<path id="Layer copy 36" class="shp1" d="M43.75 388.09L42.26 388.09C41.32 388.09 40.55 387.32 40.55 386.38C40.55 385.44 41.32 384.67 42.26 384.67L43.75 384.67C44.7 384.67 45.46 385.44 45.46 386.38C45.46 387.32 44.7 388.09 43.75 388.09Z" />
			</g>
			<g id="Layer copy 39">
				<path id="Layer copy 38" class="shp2" d="M74.1 358.19L72.02 358.19C71.08 358.19 70.31 357.43 70.31 356.48C70.31 355.54 71.08 354.77 72.02 354.77L74.1 354.77C75.05 354.77 75.81 355.54 75.81 356.48C75.81 357.43 75.05 358.19 74.1 358.19Z" />
			</g>
			<g id="Layer copy 41">
				<path id="Layer copy 40" class="shp1" d="M87.77 407.41L85.47 407.41C84.53 407.41 83.76 406.64 83.76 405.7C83.76 404.76 84.53 403.99 85.47 403.99L87.77 403.99C88.71 403.99 89.48 404.76 89.48 405.7C89.48 406.64 88.71 407.41 87.77 407.41Z" />
			</g>
		</g>
		<path id="Layer copy 43" class="shp1" d="M61.71 377.77C56.6 381.8 49.75 381.6 46.38 377.34C43.02 373.07 44.43 366.37 49.54 362.34C54.65 358.31 61.5 358.5 64.86 362.77C68.22 367.03 66.81 373.74 61.71 377.77Z" />
	</g>
</svg>