<svg height="25" viewBox="-39 0 498 498.52626" width="25" xmlns="http://www.w3.org/2000/svg"><path d="m82.628906 95.019531c16.285156-.015625 29.484375-13.214843 29.5-29.5v-14.601562c-.09375-16.222657-13.273437-29.320313-29.496094-29.320313-16.222656 0-29.398437 13.097656-29.492187 29.320313v14.601562c.015625 16.28125 13.207031 29.476563 29.488281 29.5zm0 0"/><path d="m47.371094 463.1875c.308594 8.074219 7.023437 14.410156 15.101562 14.25 8.074219-.15625 14.539063-6.75 14.53125-14.828125v-164.867187h14v164.867187c-.007812 8.089844 6.46875 14.695313 14.554688 14.839844 8.089844.144531 14.800781-6.21875 15.082031-14.304688l5.753906-193.558593h-84.777343zm0 0"/><path d="m141.0625 196.832031v75.078125c0 7.261719 5.886719 13.148438 13.148438 13.148438 7.261718 0 13.152343-5.886719 13.152343-13.148438v-112.167968c0-.234376.011719-.472657.035157-.707032.878906-8.695312-1.960938-17.359375-7.820313-23.84375-5.863281-6.484375-14.195313-10.1875-22.9375-10.1875h-16.449219l-31.496094 29.554688c-.066406.0625-.136718.117187-.207031.175781-.066406.058594-.121093.109375-.183593.160156-.488282.390625-1.023438.71875-1.59375.96875-.027344.011719-.054688.027344-.082032.039063-.027344.015625-.050781.019531-.078125.027344-.292969.121093-.59375.222656-.898437.304687l-.03125.007813c-.289063.070312-.578125.121093-.875.15625-.066406.007812-.132813.015624-.199219.023437-.296875.027344-.597656.039063-.898437.027344-.035157 0-.070313-.007813-.109376-.007813-.269531-.015625-.539062-.046875-.808593-.09375-.066407-.011718-.128907-.019531-.195313-.035156-.296875-.058594-.589844-.136719-.878906-.230469l-.058594-.023437c-.277344-.097656-.542968-.210938-.800781-.34375-.054687-.023438-.101563-.050782-.15625-.078125-.277344-.144531-.546875-.308594-.800781-.488281-.015625-.011719-.027344-.023438-.042969-.035157-.234375-.171875-.460937-.359375-.671875-.5625-.027344-.027343-.0625-.050781-.097656-.078125l-30.292969-29.46875h-17.546875c-8.742188 0-17.078125 3.699219-22.941406 10.183594-5.863282 6.484375-8.707032 15.148438-7.828125 23.84375.027343.234375.039062.472656.039062.707031v112.183594c0 3.507813 1.40625 6.871094 3.902344 9.335937 2.492187 2.464844 5.871094 3.828126 9.378906 3.789063 7.15625-.082031 12.980469-6.222656 12.980469-13.691406v-74.523438c0-3.867187 3.132812-7 7-7 3.863281 0 7 3.132813 7 7v54.398438l.351562-.007813.132813 4.363282h85.605469l.027344-.972657.222656.007813v-57.789063c0-3.867187 3.132812-7 7-7 3.867187 0 7 3.132813 7 7zm0 0"/><path d="m291.074219 250.484375c-.066407-59.734375-48.472657-108.140625-108.207031-108.207031-1.144532 0-2.296876.023437-3.441407.058594 1.824219 5.726562 2.480469 11.761718 1.929688 17.746093v111.820313c0 9.90625-5.394531 19.023437-14.078125 23.792968-8.679688 4.769532-19.269532 4.429688-27.628906-.878906l-1.609376 54.179688c14.070313 6.429687 29.363282 9.738281 44.828126 9.695312 59.734374-.066406 108.140624-48.472656 108.207031-108.207031zm0 0"/><path d="m314.074219 402.167969c-7.671875-.003907-15.230469 1.832031-22.042969 5.355469l-42.667969-63.011719-11.59375 7.847656 42.878907 63.324219c-16.597657 16.019531-19.507813 41.558594-6.945313 60.90625 12.566406 19.34375 37.082031 27.070312 58.46875 18.421875 21.382813-8.644531 33.640625-31.238281 29.226563-53.882813-4.414063-22.640625-24.257813-38.976562-47.324219-38.960937zm0 0"/><path d="m378.628906 236.617188c-17.410156.019531-33.007812 10.753906-39.246094 27.003906l-40.433593-8.042969-2.730469 13.730469 40.410156 8.039062c-.015625.433594-.035156.863282-.035156 1.300782 0 23.214843 18.820312 42.03125 42.035156 42.03125s42.035156-18.816407 42.035156-42.03125c0-23.214844-18.820312-42.035157-42.035156-42.035157zm0 0"/><path d="m258.363281 163.105469 43.625-61.625c25.089844 13.277343 56.179688 4.800781 71.0625-19.375 14.882813-24.175781 8.449219-55.75-14.707031-72.175781-23.152344-16.421876-55.082031-12.058594-72.976562 9.976562-17.898438 22.035156-15.625 54.179688 5.199218 73.472656l-43.628906 61.636719zm0 0"/></svg>